<mxfile host="app.diagrams.net" modified="2023-04-30T09:03:46.298Z" agent="Mozilla/5.0 (Macintosh; Intel Mac OS X 10_15_7) AppleWebKit/605.1.15 (KHTML, like Gecko) Version/16.4 Safari/605.1.15" version="21.2.3" etag="fqAYT-nOQHS6tSpfp6jw" type="github">
  <diagram name="Страница 1" id="GUNmsK6rfVd0PpZ0VB04">
    <mxGraphModel>
      <root>
        <mxCell id="0" />
        <mxCell id="1" parent="0" />
      </root>
    </mxGraphModel>
  </diagram>
</mxfile>
